<?xml version="1.0" standalone="no"?>
<!DOCTYPE svg PUBLIC "-//W3C//DTD SVG 20010904//EN"
 "http://www.w3.org/TR/2001/REC-SVG-20010904/DTD/svg10.dtd">
<svg version="1.0" xmlns="http://www.w3.org/2000/svg"
 width="auto" height="auto" viewBox="0 0 1024.000000 571.000000"
 preserveAspectRatio="xMidYMid meet">

<g transform="translate(0.000000,571.000000) scale(0.100000,-0.100000)"
fill="#b4aba0" stroke="none">
<path d="M4855 3715 c-219 -23 -548 -105 -753 -186 -194 -77 -451 -224 -635
-362 -419 -315 -814 -880 -938 -1342 -10 -38 -19 -71 -19 -72 0 -1 15 3 32 8
18 5 47 9 65 9 27 0 32 4 38 33 30 150 160 428 288 617 170 251 423 522 617
662 244 176 543 331 775 402 202 62 461 107 690 121 117 7 410 -9 533 -31 345
-58 700 -199 992 -391 312 -206 529 -424 750 -752 144 -214 338 -654 392 -890
44 -191 41 -184 77 -208 51 -34 65 -27 69 32 3 56 -33 210 -99 420 -211 668
-692 1267 -1283 1599 -176 99 -429 205 -610 256 -278 78 -670 108 -981 75z"/>
<path d="M5105 2980 l-380 -5 -3 -26 c-2 -15 5 -32 16 -42 17 -16 54 -17 423
-15 l404 3 3 30 c3 41 -7 52 -48 57 -19 2 -206 1 -415 -2z"/>
<path d="M3995 2600 l-290 -5 -3 -34 c-2 -18 1 -38 7 -44 15 -15 709 -11 727
4 20 16 17 46 -6 69 -16 16 -31 20 -82 18 -35 -2 -193 -5 -353 -8z"/>
<path d="M5752 2588 c-16 -16 -15 -53 2 -67 9 -8 112 -11 357 -9 l344 3 3 34
c2 20 -2 37 -10 42 -22 14 -682 11 -696 -3z"/>
<path d="M6601 2590 c-19 -8 -22 -15 -16 -37 7 -31 21 -43 50 -43 26 0 65 27
65 44 0 31 -59 52 -99 36z"/>
<path d="M3507 2579 c-22 -13 -22 -45 -1 -57 27 -15 54 -3 54 24 0 29 -28 46
-53 33z"/>
<path d="M5070 2294 c-14 -2 -117 -10 -230 -19 -113 -9 -215 -21 -228 -26 -18
-7 -47 -57 -113 -196 l-90 -186 -187 6 c-280 10 -1294 11 -1314 3 -10 -5 -29
-31 -42 -59 -23 -48 -25 -65 -28 -222 -1 -93 1 -202 6 -240 l8 -70 -48 -54
-49 -55 -9 50 c-4 27 -7 78 -6 114 2 36 4 109 4 162 1 93 0 99 -26 124 -35 35
-109 44 -161 19 -66 -31 -108 -159 -77 -239 5 -14 25 -43 45 -65 l36 -40 -53
-39 c-29 -21 -81 -69 -116 -106 -54 -58 -63 -73 -60 -99 2 -21 11 -35 26 -43
35 -17 35 -19 8 -73 -26 -51 -51 -65 -126 -73 -19 -2 -26 -10 -28 -32 -3 -28
-2 -29 29 -22 17 3 130 9 251 13 120 3 221 10 224 15 6 10 51 11 57 1 3 -5 8
-30 12 -57 l8 -49 -69 8 c-37 4 -170 4 -296 0 l-228 -8 -6 -24 c-5 -18 0 -31
15 -46 19 -20 32 -22 116 -22 l94 1 21 -57 c34 -94 77 -149 160 -204 l75 -50
-457 -3 -457 -2 -20 -26 c-22 -28 -18 -47 15 -75 15 -12 489 -14 3360 -14
l3343 0 28 21 c35 26 40 50 17 75 -17 18 -38 19 -631 19 l-615 0 62 68 c41 45
76 97 105 156 l42 88 271 -1 c180 -2 278 2 292 9 16 9 20 21 20 65 0 71 -15
85 -87 85 -56 0 -56 0 -38 -20 30 -33 8 -44 -61 -30 -131 27 -219 92 -357 265
-104 129 -141 169 -202 215 -67 50 -142 87 -212 105 -76 20 -225 19 -294 -1
-213 -63 -365 -249 -384 -471 -3 -37 -8 -87 -11 -111 l-5 -43 -752 4 c-715 4
-757 5 -847 25 -247 53 -400 118 -795 338 -260 144 -434 228 -511 247 -174 41
-339 11 -489 -92 -80 -54 -143 -86 -152 -77 -12 12 13 49 68 101 41 38 95 72
167 108 l107 52 145 0 c209 0 281 -25 575 -200 78 -47 145 -85 149 -85 3 0 95
-47 203 -104 141 -75 237 -118 333 -150 251 -84 197 -79 1006 -83 l721 -4 6
74 c31 362 328 605 693 565 155 -17 273 -77 404 -208 48 -47 105 -113 129
-148 90 -133 220 -246 264 -229 30 11 77 97 77 140 0 61 -44 127 -85 127 -23
0 -65 -38 -65 -58 0 -23 -16 -12 -40 29 -74 122 -104 163 -166 229 -87 92
-152 142 -286 219 -129 74 -279 126 -410 142 -82 10 -109 10 -184 -5 -91 -16
-350 -36 -482 -36 -63 0 -76 3 -97 24 -30 30 -42 103 -23 142 7 15 31 37 53
48 36 19 60 21 260 24 231 3 298 -3 303 -30 5 -25 -29 -29 -274 -36 -209 -6
-234 -9 -253 -26 -52 -47 -12 -81 88 -72 36 4 143 11 237 16 204 11 255 22
289 62 37 44 34 88 -10 127 -58 51 -92 56 -288 42 -576 -41 -705 -71 -824
-197 l-33 -35 -126 3 -126 3 -17 55 c-10 30 -23 66 -31 79 -22 41 -102 122
-141 142 -48 24 -64 9 -55 -53 5 -37 1 -50 -25 -91 -29 -48 -51 -56 -57 -24
-3 17 32 101 124 294 30 62 54 119 54 127 0 36 -52 50 -140 40z m-36 -200
c-25 -52 -54 -120 -66 -151 l-20 -55 -42 8 c-22 5 -114 9 -204 9 -99 0 -162 4
-162 10 0 5 27 64 60 131 l60 122 97 7 c54 3 109 7 123 9 14 2 64 4 112 5 l87
1 -45 -96z m216 -308 c0 -28 -15 -35 -50 -26 -29 7 -37 40 -20 86 l11 29 30
-33 c16 -18 29 -43 29 -56z m-2140 -18 c19 -13 49 -51 68 -87 29 -52 35 -75
36 -124 1 -51 -2 -62 -17 -65 -13 -3 -24 12 -46 60 -18 40 -44 77 -68 99 -26
22 -45 51 -56 83 -10 27 -17 51 -17 53 0 13 73 -1 100 -19z m1748 -4 c12 -2
22 -9 22 -14 0 -34 -163 -42 -201 -11 l-24 19 25 6 c14 3 34 7 45 9 22 3 96
-1 133 -9z m-711 -10 c14 -37 -6 -39 -443 -42 -444 -3 -454 -2 -454 39 0 18
16 19 445 19 395 0 446 -2 452 -16z m1794 -51 c11 -13 14 -84 14 -364 l0 -348
60 -6 c33 -3 83 -6 110 -8 49 -2 50 -3 53 -34 l3 -33 -621 0 c-409 0 -628 4
-641 10 -24 14 -24 36 0 49 12 7 194 11 490 11 l471 1 0 370 0 369 24 0 c13 0
30 -7 37 -17z m-1345 -47 c172 -81 265 -242 251 -436 -9 -125 -39 -186 -139
-278 l-35 -33 -54 32 c-30 18 -55 33 -57 34 -1 1 25 28 57 61 51 51 62 69 81
132 36 117 9 222 -77 308 -156 157 -413 99 -481 -109 -12 -37 -22 -90 -22
-117 0 -35 -4 -50 -13 -50 -7 0 -42 21 -76 47 l-63 47 5 47 c8 66 50 143 114
210 136 143 339 184 509 105z m-1583 -82 c21 -43 31 -105 23 -138 -7 -30 -47
-59 -68 -51 -35 14 -50 110 -28 184 17 60 46 62 73 5z m-387 -20 c32 -75 2
-196 -38 -156 -13 13 -24 151 -14 177 10 27 37 16 52 -21z m3165 -71 c5 -13 3
-28 -5 -39 -12 -15 -20 -17 -62 -8 -36 7 -50 14 -53 28 -8 47 103 65 120 19z
m-1311 -119 c42 -25 63 -69 57 -117 -15 -109 -150 -138 -207 -44 -25 40 -25
60 0 112 31 63 92 83 150 49z m-967 -206 c82 -39 157 -114 195 -196 38 -82 54
-182 41 -260 -21 -132 -123 -266 -246 -325 -63 -30 -75 -32 -173 -32 -100 0
-108 2 -167 34 -121 65 -193 152 -228 276 -20 68 -16 176 10 262 32 106 134
212 245 253 83 31 243 25 323 -12z m3622 -2 c79 -39 163 -124 204 -207 59
-120 53 -269 -16 -388 -110 -190 -354 -274 -538 -185 -87 42 -186 142 -214
219 -31 82 -38 201 -17 284 20 77 44 119 110 189 93 99 154 123 306 119 93 -2
112 -6 165 -31z m-2909 -503 l69 -28 335 0 c184 0 562 -1 840 -2 l505 -3 24
-62 c28 -72 84 -137 159 -185 30 -19 51 -37 49 -40 -3 -2 -584 -5 -1290 -6
l-1285 -2 52 55 c67 71 114 140 142 210 l23 55 98 7 c54 3 114 11 133 16 55
16 73 14 146 -15z"/>
<path d="M3224 1050 c-56 -28 -119 -94 -150 -156 -23 -47 -26 -63 -23 -136 3
-62 10 -94 27 -128 68 -130 206 -194 337 -155 80 23 166 107 189 185 40 133
10 249 -85 334 -83 75 -208 99 -295 56z m184 -194 c34 -31 37 -39 35 -83 -1
-40 -7 -53 -32 -75 -93 -83 -236 49 -160 146 44 56 104 60 157 12z"/>
<path d="M6860 1059 c-13 -6 -48 -28 -76 -49 -55 -42 -91 -102 -113 -192 -21
-89 18 -208 91 -273 159 -144 393 -87 469 114 58 154 -28 344 -178 395 -52 18
-154 20 -193 5z m149 -183 c39 -21 61 -58 61 -106 0 -106 -144 -140 -200 -48
-31 51 -26 94 14 134 38 38 77 44 125 20z"/>
</g>
</svg>
